<svg width="32" height="32" viewBox="0 0 32 32" fill="none" xmlns="http://www.w3.org/2000/svg">
<rect width="32" height="32" rx="6" fill="#0D0D0D"/>
<g transform="translate(1.5, 4) scale(0.0465)">
<path d="M447.402 178.904H529.294L481.028 36.1985H495.897L447.63 178.904H447.402ZM353.843 286.571L454.035 0H522.66L622.853 286.571H565.208L544.62 225.08H432.304L411.259 286.571H353.843Z" fill="white"/>
<path d="M168.818 0L142.054 80.2864L134.505 58.0104L93.5588 178.904H109.114L93.7875 225.08H78.4613L57.4163 286.571H0L100.193 0H168.818Z" fill="#FF2FA3"/>
<path d="M288.719 0L261.955 80.2864L254.406 58.0104L213.46 178.904H229.015L213.46 225.08H198.134L177.089 286.571H119.901L220.094 0H288.719Z" fill="#FB78BE"/>
<path d="M408.331 0L381.568 80.2864L374.019 58.0104L333.072 178.904H348.627L333.301 225.08H317.975L296.93 286.571H239.514L339.706 0H408.331Z" fill="#FCBDDE"/>
</g>
</svg>
